# xmcd
#
# Track frame offsets:
#	182
#	20205
#	33125
#	50650
#	62770
#	76412
#	88327
#	105747
#	121312
#	133152
#	158565
#	171405
#	182880
#	195555
#	214132
#	229507
#	244700
#
# Disc length: 3506 seconds
#
# Revision: 1
# Processed by: cddbd v1.5.2PL0 Copyright (c) Steve Scherf et al.
# Submitted via: audiograbber 1.83.01
#
DISCID=ed0db011
DTITLE=Roto Noto - Soo Weet Vibrations
DYEAR=1993
DGENRE=
TTITLE0=Slow Dance -Diane Raeside
TTITLE1=I Still Think Of You -Grant Tingey
TTITLE2=Love On Both Sides -Karen Doucette
TTITLE3=No Cowboys -Little Big Band
TTITLE4=Baby Most Have Change Her Mind -Mark Blayney
TTITLE5=Milion Country Songs -Annette Lightheart
TTITLE6=Take Me To The Country -North Starr
TTITLE7=My Heart´s In Danger -Terry Micallef
TTITLE8=Shame On You -Janey
TTITLE9=Don´t Be Afraid -Rodeo Drive  
TTITLE10=Don´t Tell Me -Kelly Ellerd
TTITLE11=Making ItEeasy -Jeanette James
TTITLE12=Winter, Spring, Summer, Fall -Annie Crystal
TTITLE13=Corners -Sherrone
TTITLE14=Loving Ways -Harrison Kennedy
TTITLE15=Snowman In The Rain -Lani Clark
TTITLE16=Some Strange Reason -Mark Severn
EXTD=
EXTT0=
EXTT1=
EXTT2=
EXTT3=
EXTT4=
EXTT5=
EXTT6=
EXTT7=
EXTT8=
EXTT9=
EXTT10=
EXTT11=
EXTT12=
EXTT13=
EXTT14=
EXTT15=
EXTT16=
PLAYORDER=
